<mxfile host="app.diagrams.net" agent="Mozilla/5.0 (Windows NT 10.0; Win64; x64) AppleWebKit/537.36 (KHTML, like Gecko) Chrome/128.0.0.0 Safari/537.36" version="24.7.7">
  <diagram name="PÃ¡gina-1" id="385TMY79AWGwdWh3FIsn">
    <mxGraphModel dx="1434" dy="780" grid="1" gridSize="10" guides="1" tooltips="1" connect="1" arrows="1" fold="1" page="1" pageScale="1" pageWidth="827" pageHeight="1169" math="0" shadow="0">
      <root>
        <mxCell id="0" />
        <mxCell id="1" parent="0" />
        <mxCell id="VZ4IFcShaRtxtsI_1uKa-1" value="" style="edgeStyle=orthogonalEdgeStyle;rounded=0;orthogonalLoop=1;jettySize=auto;html=1;" edge="1" parent="1" source="VZ4IFcShaRtxtsI_1uKa-2" target="VZ4IFcShaRtxtsI_1uKa-4">
          <mxGeometry relative="1" as="geometry" />
        </mxCell>
        <mxCell id="VZ4IFcShaRtxtsI_1uKa-2" value="inicio" style="ellipse;whiteSpace=wrap;html=1;" vertex="1" parent="1">
          <mxGeometry x="340" y="90" width="120" height="80" as="geometry" />
        </mxCell>
        <mxCell id="VZ4IFcShaRtxtsI_1uKa-3" value="" style="edgeStyle=orthogonalEdgeStyle;rounded=0;orthogonalLoop=1;jettySize=auto;html=1;" edge="1" parent="1" source="VZ4IFcShaRtxtsI_1uKa-4" target="VZ4IFcShaRtxtsI_1uKa-6">
          <mxGeometry relative="1" as="geometry" />
        </mxCell>
        <mxCell id="VZ4IFcShaRtxtsI_1uKa-4" value="imprima(&quot;digite nome&quot;);&lt;div&gt;leia(nome);&lt;/div&gt;" style="shape=parallelogram;perimeter=parallelogramPerimeter;whiteSpace=wrap;html=1;fixedSize=1;" vertex="1" parent="1">
          <mxGeometry x="320" y="210" width="160" height="60" as="geometry" />
        </mxCell>
        <mxCell id="VZ4IFcShaRtxtsI_1uKa-13" value="" style="edgeStyle=orthogonalEdgeStyle;rounded=0;orthogonalLoop=1;jettySize=auto;html=1;" edge="1" parent="1" source="VZ4IFcShaRtxtsI_1uKa-6" target="VZ4IFcShaRtxtsI_1uKa-12">
          <mxGeometry relative="1" as="geometry" />
        </mxCell>
        <mxCell id="VZ4IFcShaRtxtsI_1uKa-6" value="imprima(&quot;digite idade&quot;);&lt;div&gt;leia(idade);&lt;/div&gt;" style="shape=parallelogram;perimeter=parallelogramPerimeter;whiteSpace=wrap;html=1;fixedSize=1;" vertex="1" parent="1">
          <mxGeometry x="320" y="310" width="160" height="60" as="geometry" />
        </mxCell>
        <mxCell id="VZ4IFcShaRtxtsI_1uKa-15" value="" style="edgeStyle=orthogonalEdgeStyle;rounded=0;orthogonalLoop=1;jettySize=auto;html=1;" edge="1" parent="1" source="VZ4IFcShaRtxtsI_1uKa-12" target="VZ4IFcShaRtxtsI_1uKa-14">
          <mxGeometry relative="1" as="geometry" />
        </mxCell>
        <mxCell id="VZ4IFcShaRtxtsI_1uKa-17" value="" style="edgeStyle=orthogonalEdgeStyle;rounded=0;orthogonalLoop=1;jettySize=auto;html=1;" edge="1" parent="1" source="VZ4IFcShaRtxtsI_1uKa-12" target="VZ4IFcShaRtxtsI_1uKa-16">
          <mxGeometry relative="1" as="geometry" />
        </mxCell>
        <mxCell id="VZ4IFcShaRtxtsI_1uKa-12" value="se idade &amp;gt; 18" style="rhombus;whiteSpace=wrap;html=1;" vertex="1" parent="1">
          <mxGeometry x="360" y="440" width="80" height="80" as="geometry" />
        </mxCell>
        <mxCell id="VZ4IFcShaRtxtsI_1uKa-19" value="" style="edgeStyle=orthogonalEdgeStyle;rounded=0;orthogonalLoop=1;jettySize=auto;html=1;" edge="1" parent="1" source="VZ4IFcShaRtxtsI_1uKa-14" target="VZ4IFcShaRtxtsI_1uKa-18">
          <mxGeometry relative="1" as="geometry" />
        </mxCell>
        <mxCell id="VZ4IFcShaRtxtsI_1uKa-14" value="imprima(&quot;maior de idade&quot;)" style="shape=parallelogram;perimeter=parallelogramPerimeter;whiteSpace=wrap;html=1;fixedSize=1;" vertex="1" parent="1">
          <mxGeometry x="200" y="525" width="120" height="60" as="geometry" />
        </mxCell>
        <mxCell id="VZ4IFcShaRtxtsI_1uKa-20" style="edgeStyle=orthogonalEdgeStyle;rounded=0;orthogonalLoop=1;jettySize=auto;html=1;entryX=0.5;entryY=0;entryDx=0;entryDy=0;" edge="1" parent="1" source="VZ4IFcShaRtxtsI_1uKa-16" target="VZ4IFcShaRtxtsI_1uKa-18">
          <mxGeometry relative="1" as="geometry" />
        </mxCell>
        <mxCell id="VZ4IFcShaRtxtsI_1uKa-16" value="imprima(&quot;menor de idade&quot;)" style="shape=parallelogram;perimeter=parallelogramPerimeter;whiteSpace=wrap;html=1;fixedSize=1;" vertex="1" parent="1">
          <mxGeometry x="460" y="525" width="120" height="60" as="geometry" />
        </mxCell>
        <mxCell id="VZ4IFcShaRtxtsI_1uKa-18" value="fim" style="ellipse;whiteSpace=wrap;html=1;" vertex="1" parent="1">
          <mxGeometry x="360" y="670" width="80" height="80" as="geometry" />
        </mxCell>
      </root>
    </mxGraphModel>
  </diagram>
</mxfile>
